<svg width="1086" height="863" viewBox="0 0 1086 863" fill="none" xmlns="http://www.w3.org/2000/svg">
<path d="M437 389L1074 389.487V408H437.765L437 389Z" fill="#FFAE34" stroke="#FFAE34"/>
<path d="M331.8 309.1L347.4 325.7V362.4L331.8 379H284V360.7H328.7V360.6L307.2 341.3H328.7V327.4H284V309.1H331.8ZM402.138 309H420.738V379H402.138V353.1H376.038V379H357.438V309H376.038V334.8H402.138V309ZM494.175 327.4H449.475V338.6H474.075L449.475 360.7H494.175V379H430.875V309.1H494.175V327.4ZM504.313 309H567.713V357H522.913V379H504.313V309ZM549.013 339.6V327.4H522.913V339.6H549.013ZM577.75 309.1H634.75V333.9H616.05V327.4H596.35V379.1H577.75V309.1ZM644.742 309H708.142V379H644.742V309ZM689.442 360.7V327.4H663.342V360.7H689.442ZM781.58 335.7H762.88V327.4H736.78V360.7H762.88V352.4H781.58V379.1H718.18V309.1H781.58V335.7ZM853.017 309V327.4H830.617V379H811.917V327.4H789.617V309H853.017ZM861.148 309H924.548V357H879.748V379H861.148V309ZM905.848 339.6V327.4H879.748V339.6H905.848ZM934.586 309H997.986V379H934.586V309ZM979.286 360.7V327.4H953.186V360.7H979.286ZM1069.52 309.1H1071.32V379H1052.72V351.4L1026.62 379H1008.02V309.1H1026.62V354.5L1069.52 309.1ZM1036.12 309.1H1055.82L1036.12 330.1V309.1Z" fill="url(#paint0_linear_218_18)"/>
<path fill-rule="evenodd" clip-rule="evenodd" d="M11.6673 483.5L366.167 0L383.418 9.86339L220.418 388.913H437.232H457.928L445.066 405.127L442.46 408.413H228.732V408.913H205.232H190.046L196.045 394.962L330.318 82.719L39.4637 479.413H218.732H233.405L228.039 493.07L225.547 499.413L204.059 499.413H19.7319H0L11.6673 483.5ZM187.164 542.413L65.4245 852.256L82.5664 862.127L386.935 478.413H361.407L108.549 797.188L208.652 542.413H187.164Z" fill="#FFAE34"/>
<defs>
<linearGradient id="paint0_linear_218_18" x1="291.575" y1="453" x2="1262.89" y2="248.174" gradientUnits="userSpaceOnUse">
<stop stop-color="white"/>
<stop offset="1" stop-color="#F1DD26" stop-opacity="0.65"/>
</linearGradient>
</defs>
</svg>
